<?xml version="1.0" encoding="utf-8"?>
<!-- Generator: Adobe Illustrator 19.1.0, SVG Export Plug-In . SVG Version: 6.00 Build 0)  -->
<svg version="1.1" id="Layer_1" xmlns="http://www.w3.org/2000/svg" xmlns:xlink="http://www.w3.org/1999/xlink" x="0px" y="0px"
	 viewBox="0 0 326.5 73" style="enable-background:new 0 0 326.5 73;" xml:space="preserve">
<style type="text/css">
	.st0{fill:#1A82E2;}
</style>
<g>
	<g>
		<g>
			<path class="st0" d="M130,21.1c-0.4,1.1-0.9,2.2-1.6,3.3c-1.1-0.5-2.2-0.9-3.3-1.3c-1.1-0.3-2.6-0.5-4.5-0.5
				c-0.7,0-1.4,0.1-2.2,0.2c-0.8,0.1-1.5,0.3-2.1,0.6c-0.6,0.3-1.1,0.8-1.5,1.3c-0.4,0.6-0.6,1.3-0.6,2.2c0,1.3,0.5,2.3,1.4,3.1
				c0.9,0.8,2.1,1.6,3.5,2.5c1.3,0.7,2.4,1.4,3.5,2.1c1.1,0.7,2,1.5,2.9,2.3c0.8,0.8,1.5,1.7,1.9,2.8c0.5,1,0.7,2.2,0.7,3.6
				c0,1.9-0.3,3.7-1,5.5c-0.7,1.8-1.8,3.3-3.2,4.6c-1.4,1.3-3.3,2.4-5.5,3.1c-2.2,0.8-4.8,1.2-7.8,1.2c-3.5,0-7-0.7-10.4-2
				c0.1-1.1,0.4-2.2,0.8-3.4c0.4-1.1,0.9-2.3,1.4-3.6c1.4,0.5,2.9,1,4.3,1.3c1.5,0.4,2.9,0.6,4.3,0.6c1.2,0,2.2-0.1,3.2-0.4
				c1-0.3,1.8-0.7,2.6-1.2c0.7-0.5,1.3-1.2,1.7-1.9c0.4-0.7,0.6-1.6,0.6-2.6c0-0.7-0.2-1.4-0.5-2c-0.3-0.6-0.8-1.1-1.3-1.5
				c-0.5-0.5-1.1-0.9-1.9-1.3c-0.7-0.4-1.4-0.8-2.1-1.3c-2.4-1.4-4.3-2.9-5.7-4.4c-1.4-1.5-2.1-3.3-2.1-5.3c0-2,0.4-3.8,1.1-5.4
				c0.7-1.6,1.7-2.9,3-4c1.3-1.1,2.9-1.9,4.7-2.5c1.8-0.6,3.9-0.9,6.2-0.9c2.1,0,3.8,0.2,5.3,0.4c1.5,0.3,3.1,0.8,4.7,1.4
				C130.7,18.9,130.4,20,130,21.1L130,21.1z M155.7,39c-0.8,1.2-1.8,2.3-3.1,3.1c-1.3,0.9-2.8,1.6-4.5,2.1c-1.7,0.5-3.4,1-5.2,1.2
				l-3.8,0.6c0.2,1.8,0.8,3.1,1.8,4c1,0.9,2.4,1.3,4.3,1.3c1.5,0,2.8-0.2,4-0.5c1.1-0.3,2.3-0.7,3.6-1.3c0.6,0.8,1,1.7,1.2,2.7
				c0.2,1.1,0.3,2.2,0.3,3.4c-0.6,0.3-1.4,0.6-2.2,0.8c-0.8,0.2-1.7,0.5-2.6,0.6c-0.9,0.2-1.8,0.3-2.7,0.4c-0.9,0.1-1.7,0.1-2.4,0.1
				c-2.3,0-4.2-0.3-5.9-0.8c-1.6-0.6-3-1.4-4-2.4c-1.1-1-1.8-2.3-2.4-3.8c-0.5-1.5-0.8-3.1-0.8-4.9c0-2.3,0.4-4.5,1.2-6.7
				c0.8-2.2,1.9-4.2,3.3-5.9c1.4-1.7,3.2-3.1,5.3-4.2c2.1-1.1,4.4-1.6,7-1.6c1.2,0,2.4,0.2,3.4,0.5c1.1,0.3,2,0.8,2.8,1.4
				c0.8,0.6,1.4,1.4,1.9,2.3c0.4,0.9,0.7,1.9,0.7,3.1C156.9,36.3,156.5,37.8,155.7,39L155.7,39z M148.6,33.9
				c-0.5-0.5-1.1-0.7-1.9-0.7c-1,0-1.9,0.2-2.7,0.6c-0.8,0.4-1.5,1-2.1,1.7c-0.6,0.7-1.1,1.5-1.5,2.4c-0.4,0.9-0.8,1.8-1,2.8
				l2.9-0.4c1.4-0.2,2.6-0.5,3.5-0.9c0.9-0.4,1.6-0.7,2.1-1.2c0.5-0.4,0.9-0.9,1.1-1.3c0.2-0.4,0.3-0.9,0.3-1.3
				C149.3,34.9,149.1,34.3,148.6,33.9L148.6,33.9z M186.3,36.6c-0.1,0.6-0.2,1.3-0.3,2L182.8,57c-1.4,0.2-2.8,0.3-4.1,0.3
				c-1.3,0-2.6-0.1-3.9-0.3l3.1-17.8c0.1-0.7,0.2-1.5,0.2-2.1c0-1.1-0.2-1.9-0.7-2.4c-0.5-0.4-1.2-0.7-2.1-0.7
				c-0.5,0-1.1,0.1-1.8,0.4c-0.7,0.3-1.3,0.8-2,1.7c-0.7,0.8-1.3,2-2,3.6c-0.6,1.5-1.2,3.5-1.6,6.1L166,57c-1.5,0.2-2.8,0.3-4.1,0.3
				c-1.3,0-2.6-0.1-3.9-0.3l3-16.5c0.4-2.4,0.7-4.4,0.9-6.3c0.2-1.8,0.3-3.2,0.3-4.2c0-0.4,0-0.8,0-1c0-0.3,0-0.6-0.1-0.9
				c1.2-0.2,2.5-0.3,3.7-0.3c0.6,0,1.1,0,1.7,0.1c0.6,0.1,1.2,0.1,1.8,0.3c0.1,0.3,0.2,0.6,0.2,1.1c0.1,0.4,0.1,1,0.1,1.9
				c0,0.3,0,0.7,0,1c0,0.3-0.1,0.7-0.1,1.2c0.4-0.8,1-1.5,1.7-2.2c0.7-0.7,1.4-1.3,2.3-1.9c0.9-0.5,1.8-0.9,2.8-1.2
				c1-0.3,2-0.5,3-0.5c2.2,0,4,0.6,5.2,1.7c1.3,1.1,1.9,3,1.9,5.7C186.4,35.4,186.4,36,186.3,36.6L186.3,36.6z M218,24.2l-3.7,20.3
				c-0.4,2.3-0.7,4.4-0.9,6.2c-0.2,1.8-0.3,3.2-0.3,4.2c0,0.4,0,0.8,0,1c0,0.3,0,0.6,0.1,0.9c-1.2,0.2-2.4,0.3-3.6,0.3
				c-1,0-2.2-0.1-3.5-0.3c-0.1-0.3-0.2-0.7-0.2-1.1c-0.1-0.4-0.1-1-0.1-1.8c0-0.3,0-0.7,0-1.2c0-0.4,0.1-0.9,0.1-1.4
				c-0.5,0.9-1.1,1.7-1.9,2.4c-0.7,0.8-1.5,1.4-2.4,2c-0.9,0.6-1.8,1-2.8,1.3c-1,0.3-2.1,0.5-3.2,0.5c-2.5,0-4.3-0.8-5.5-2.4
				c-1.2-1.6-1.9-3.6-1.9-6.2c0-2.8,0.4-5.5,1.3-8.1c0.8-2.6,2.1-4.9,3.8-7c1.7-2,3.7-3.6,6.2-4.8c2.5-1.2,5.3-1.8,8.6-1.8
				c0.3,0,0.5,0,0.8,0c0.2,0,0.5,0,0.6,0c0.4-2.2,0.7-4.1,0.9-5.6c0.2-1.5,0.3-2.8,0.3-3.8c0-0.4,0-0.8,0-1c0-0.3-0.1-0.6-0.1-0.9
				c0.6-0.1,1.4-0.2,2.2-0.3c0.8-0.1,1.5-0.1,2.1-0.1c1.1,0,2.3,0.1,3.6,0.3c0.2,0.6,0.3,1.3,0.3,2.1
				C218.7,19.8,218.4,21.8,218,24.2L218,24.2z M207.4,33.9c-0.3,0-0.6,0-0.9,0c-1.8,0-3.3,0.4-4.6,1.3c-1.3,0.9-2.3,2-3.1,3.4
				c-0.8,1.3-1.4,2.8-1.8,4.3c-0.4,1.6-0.6,3-0.6,4.2c0,2.8,0.9,4.1,2.7,4.1c1.8,0,3.5-1.1,5-3.3c1.5-2.2,2.7-5.3,3.4-9.2l0.8-4.8
				C208,34,207.7,33.9,207.4,33.9L207.4,33.9z M250.1,20.9c-0.4,1-0.8,2.1-1.5,3.3c-1.2-0.5-2.2-0.8-3.2-0.9c-1-0.2-1.9-0.2-2.9-0.2
				c-2.5,0-4.6,0.5-6.4,1.6c-1.8,1.1-3.2,2.5-4.4,4.2c-1.1,1.7-2,3.7-2.5,5.9c-0.5,2.2-0.8,4.4-0.8,6.7c0,3.3,0.8,5.6,2.4,7
				c1.6,1.4,3.7,2.1,6.3,2.1c0.5,0,1.1,0,1.7-0.1c0.6-0.1,1.1-0.1,1.5-0.2l2.5-14.1c0.7-0.2,1.5-0.3,2.1-0.3c0.7-0.1,1.3-0.1,2-0.1
				c0.6,0,1.3,0,2,0.1c0.7,0,1.4,0.2,2,0.3l-3.5,20c-1.6,0.6-3.5,1-5.5,1.2c-2.1,0.2-4,0.4-5.8,0.4c-2.7,0-5.1-0.4-7.2-1.2
				c-2.1-0.8-3.8-1.9-5.2-3.2c-1.4-1.4-2.4-3-3.1-4.9c-0.7-1.9-1-3.9-1-6.1c0-3.6,0.5-7,1.6-10.2c1.1-3.2,2.6-5.9,4.6-8.3
				c2-2.4,4.3-4.2,7.1-5.6c2.8-1.4,5.8-2,9.2-2c1.8,0,3.3,0.1,4.7,0.3c1.4,0.2,2.8,0.6,4.2,1.3C250.7,18.8,250.4,19.9,250.1,20.9
				L250.1,20.9z M273,32.2c-0.3,1.1-0.6,2.1-1.1,2.8c-0.2,0-0.5-0.1-0.7-0.1c-0.3,0-0.6-0.1-1-0.1c-1.5,0-2.8,0.3-3.8,0.8
				c-1,0.5-1.8,1.3-2.4,2.2c-0.6,1-1.1,2.1-1.5,3.4c-0.4,1.3-0.7,2.8-1,4.5L259.4,57c-1.5,0.2-2.8,0.3-4.1,0.3
				c-1.3,0-2.6-0.1-3.9-0.3l3-16.5c0.4-2.4,0.7-4.4,0.9-6.3c0.2-1.8,0.3-3.2,0.3-4.2c0-0.4,0-0.8,0-1c0-0.3,0-0.6-0.1-0.9
				c1.2-0.2,2.5-0.3,3.7-0.3c0.6,0,1.1,0,1.7,0.1c0.6,0.1,1.2,0.1,1.8,0.3c0.1,0.3,0.2,0.6,0.2,1.1c0.1,0.4,0.1,1,0.1,1.9
				c0,0.3,0,0.7,0,1c0,0.3-0.1,0.7-0.1,1.2c0.4-0.7,0.8-1.3,1.4-2c0.6-0.7,1.2-1.2,1.9-1.8c0.7-0.5,1.5-0.9,2.3-1.3
				c0.8-0.3,1.8-0.5,2.8-0.5c0.8,0,1.5,0.1,2,0.3c0,0.1,0.1,0.3,0.1,0.4c0,0.1,0,0.3,0,0.5C273.4,30,273.3,31.1,273,32.2L273,32.2z
				 M282.7,57c-1.4,0.2-2.8,0.3-4,0.3c-1.2,0-2.4-0.1-3.8-0.3l4-22.9h-3.5c0-0.1,0-0.2,0-0.3c0-0.1,0-0.2,0-0.4c0-1,0.1-1.9,0.3-2.7
				c0.2-0.8,0.5-1.7,0.8-2.6h11.3L282.7,57L282.7,57z M317.9,24.2l-3.6,20.3c-0.4,2.3-0.7,4.4-0.9,6.2c-0.2,1.8-0.3,3.2-0.3,4.2
				c0,0.4,0,0.8,0,1c0,0.3,0,0.6,0.1,0.9c-1.2,0.2-2.5,0.3-3.6,0.3c-1,0-2.2-0.1-3.5-0.3c-0.1-0.3-0.1-0.7-0.2-1.1
				c-0.1-0.4-0.1-1-0.1-1.8c0-0.3,0-0.7,0-1.2c0-0.4,0.1-0.9,0.1-1.4c-0.5,0.9-1.1,1.7-1.9,2.4c-0.7,0.8-1.5,1.4-2.4,2
				c-0.9,0.6-1.8,1-2.8,1.3c-1,0.3-2.1,0.5-3.2,0.5c-2.5,0-4.3-0.8-5.6-2.4c-1.2-1.6-1.8-3.6-1.8-6.2c0-2.8,0.4-5.5,1.3-8.1
				c0.8-2.6,2.1-4.9,3.8-7c1.7-2,3.7-3.6,6.2-4.8c2.5-1.2,5.3-1.8,8.6-1.8c0.3,0,0.5,0,0.8,0c0.2,0,0.5,0,0.6,0
				c0.4-2.2,0.7-4.1,0.9-5.6c0.2-1.5,0.3-2.8,0.3-3.8c0-0.4,0-0.8,0-1c0-0.3,0-0.6-0.1-0.9c0.6-0.1,1.4-0.2,2.2-0.3
				c0.8-0.1,1.5-0.1,2.1-0.1c1.1,0,2.3,0.1,3.6,0.3c0.2,0.6,0.3,1.3,0.3,2.1C318.6,19.8,318.4,21.8,317.9,24.2L317.9,24.2z
				 M307.3,33.9c-0.3,0-0.6,0-0.9,0c-1.8,0-3.3,0.4-4.6,1.3c-1.3,0.9-2.3,2-3.1,3.4c-0.8,1.3-1.4,2.8-1.8,4.3
				c-0.4,1.6-0.6,3-0.6,4.2c0,2.8,0.9,4.1,2.7,4.1c1.8,0,3.5-1.1,5-3.3c1.5-2.2,2.6-5.3,3.4-9.2l0.8-4.8
				C307.9,34,307.6,33.9,307.3,33.9L307.3,33.9z"/>
			<g>
				<path class="st0" d="M323,21.2c-1.4,0-2.5-1.1-2.5-2.5c0-1.6,1.1-2.6,2.8-2.6c1.4,0,2.4,1,2.4,2.4
					C325.7,20.2,324.7,21.2,323,21.2z M323.1,16.7c-1.1,0-1.9,0.7-1.9,1.9c0,1.2,0.8,2,1.9,2c1,0,1.9-0.7,1.9-1.9
					C325,17.5,324.2,16.7,323.1,16.7z M323.6,19.9l-0.7-1v0.6c0,0,0,0.1,0,0.4h-0.8v-2.2l-0.1-0.5h0.9c0.5,0,1.1,0.3,1.1,0.9
					c0,0.3-0.2,0.6-0.5,0.8l0.9,1H323.6z M323,18.6c0.2,0,0.5-0.2,0.5-0.5c0-0.3-0.2-0.4-0.5-0.4h0L323,18.6L323,18.6z"/>
			</g>
		</g>
		<path class="st0" d="M289.3,19.3c-0.2,1.2-0.6,2.4-1,3.7c-0.7,0.1-1.4,0.2-2.1,0.2c-0.7,0-1.4,0.1-2,0.1c-0.6,0-1.2,0-2-0.1
			c-0.8,0-1.4-0.1-2-0.2c0-1.3,0-2.5,0.3-3.7c0.2-1.2,0.5-2.4,1-3.7c0.7-0.2,1.4-0.3,2.1-0.3c0.7-0.1,1.4-0.1,2-0.1
			c0.6,0,1.3,0,2,0.1c0.7,0.1,1.4,0.2,2,0.3C289.6,16.9,289.5,18.1,289.3,19.3L289.3,19.3z"/>
	</g>
	<g>
		<path class="st0" d="M91.2,46.4c0-0.6-0.1-1.1-0.2-1.5c-0.5-2.3-1.8-3.9-3.7-4.7c-1.4-0.6-3-0.8-5-0.7
			c-10.3,0.7-24.9,13.8-27.2,15.9C83.4,62.7,91.5,52.6,91.2,46.4z"/>
		<path class="st0" d="M90.7,41c-2-12.9-7.4-29.4-7.4-29.4C81.5,6.1,78.5,2,69.4,2c-9.1,0-18.2,7.2-30.3,17.8c0,0-16.7,16-28.6,16.6
			c-4,0.2-6.9-0.9-8.4-3.5c3.7,18.2,7.4,29.4,7.4,29.4c1.8,5.4,4.8,9.6,13.9,9.6c9.1,0,18.2-7.2,30.3-17.8c0,0,16.7-16,28.6-16.6
			C86.3,37.2,89.3,38.4,90.7,41z M20.2,53.4L30,28.8l9.4,35L20.2,53.4z M46.7,35.9l7.2-26.6l9,35.6L46.7,35.9z M79.9,7.3
			c0,0,5.5,15,8.4,30.1L73.7,22.9L79.9,7.3z"/>
		<path class="st0" d="M1.7,27.4c0,0.6,0.1,1.1,0.2,1.5c0.5,2.3,1.8,3.9,3.7,4.7c1.4,0.6,3,0.8,5,0.7C21,33.8,35.6,20.6,37.8,18.5
			C9.5,11.2,1.4,21.2,1.7,27.4z"/>
	</g>
</g>
</svg>
